<svg width="96" height="96" viewBox="0 0 96 96" fill="none" xmlns="http://www.w3.org/2000/svg">
<rect x="0.5" y="0.5" width="95" height="95" rx="14.0741" fill="white"/>
<g clip-path="url(#clip0_2344_31763)">
<path d="M41.6071 78.9094C41.8586 79.2769 42.2689 79.5001 42.7056 79.5001H63.8821C64.5174 79.5001 65.0733 79.0407 65.1791 78.4238L67.813 64.0519C68.5541 60.8494 67.5086 57.0432 64.0806 55.9538L53.2806 52.3182V37.5132C53.2806 34.6126 50.9115 32.2632 47.9865 32.2632C45.0615 32.2632 42.6924 34.6126 42.6924 37.5132V62.1882C38.788 57.0169 36.2336 55.8882 33.4277 55.8882C32.1041 55.8882 31.0453 56.4919 30.4497 57.5682C29.5233 59.2613 30.0394 61.7157 30.9924 63.1726L41.5806 78.9226L41.6071 78.9094Z" fill="#FF5E00"/>
<path d="M70.5009 34.875C70.5009 33.4312 69.3097 32.25 67.8539 32.25H59.9127C58.4568 32.25 57.2656 33.4312 57.2656 34.875C57.2656 36.3187 58.4568 37.5 59.9127 37.5H67.8539C69.3097 37.5 70.5009 36.3187 70.5009 34.875Z" fill="#FF5E00"/>
<path d="M59.1312 30.1631L64.4253 24.9131C65.4577 23.8893 65.4577 22.2225 64.4253 21.1987C63.3929 20.175 61.7121 20.175 60.6797 21.1987L55.3856 26.4487C54.3532 27.4725 54.3532 29.1393 55.3856 30.1631C55.9018 30.675 56.5768 30.9375 57.2518 30.9375C57.9268 30.9375 58.6018 30.675 59.1179 30.1631H59.1312Z" fill="#FF5E00"/>
<path d="M50.6476 27V19.125C50.6476 17.6812 49.4565 16.5 48.0006 16.5C46.5447 16.5 45.3535 17.6812 45.3535 19.125V27C45.3535 28.4438 46.5447 29.625 48.0006 29.625C49.4565 29.625 50.6476 28.4438 50.6476 27Z" fill="#FF5E00"/>
<path d="M38.7349 30.9375C39.4099 30.9375 40.0849 30.675 40.6011 30.1631C41.6334 29.1393 41.6334 27.4725 40.6011 26.4487L35.307 21.1987C34.2746 20.175 32.5937 20.175 31.5614 21.1987C30.529 22.2225 30.529 23.8893 31.5614 24.9131L36.8555 30.1631C37.3717 30.675 38.0467 30.9375 38.7217 30.9375H38.7349Z" fill="#FF5E00"/>
<path d="M25.5 34.875C25.5 36.3187 26.6912 37.5 28.1471 37.5H36.0882C37.5441 37.5 38.7353 36.3187 38.7353 34.875C38.7353 33.4312 37.5441 32.25 36.0882 32.25H28.1471C26.6912 32.25 25.5 33.4312 25.5 34.875Z" fill="#FF5E00"/>
</g>
<defs>
<clipPath id="clip0_2344_31763">
<rect width="45" height="63" fill="white" transform="translate(25.5 16.5)"/>
</clipPath>
</defs>
</svg>
