<svg width="96" height="96" viewBox="0 0 96 96" fill="none" xmlns="http://www.w3.org/2000/svg">
<rect x="0.5" y="0.5" width="95" height="95" rx="14.0741" fill="white"/>
<g clip-path="url(#clip0_2344_30599)">
<path d="M71 24H25C24.45 24 24 24.45 24 25V71C24 71.55 24.45 72 25 72H71C71.55 72 72 71.55 72 71V25C72 24.45 71.55 24 71 24ZM45.71 51.71L35.71 61.71C35.51 61.91 35.26 62 35 62C34.74 62 34.49 61.9 34.29 61.71L30.29 57.71C29.9 57.32 29.9 56.69 30.29 56.3C30.68 55.91 31.31 55.91 31.7 56.3L34.99 59.59L44.28 50.3C44.67 49.91 45.3 49.91 45.69 50.3C46.08 50.69 46.08 51.32 45.69 51.71H45.71ZM45.71 32.71L35.71 42.71C35.51 42.91 35.26 43 35 43C34.74 43 34.49 42.9 34.29 42.71L30.29 38.71C29.9 38.32 29.9 37.69 30.29 37.3C30.68 36.91 31.31 36.91 31.7 37.3L34.99 40.59L44.28 31.3C44.67 30.91 45.3 30.91 45.69 31.3C46.08 31.69 46.08 32.32 45.69 32.71H45.71ZM65 60H49C48.45 60 48 59.55 48 59C48 58.45 48.45 58 49 58H65C65.55 58 66 58.45 66 59C66 59.55 65.55 60 65 60ZM65 42H49C48.45 42 48 41.55 48 41C48 40.45 48.45 40 49 40H65C65.55 40 66 40.45 66 41C66 41.55 65.55 42 65 42Z" fill="#FF5E00"/>
</g>
<defs>
<clipPath id="clip0_2344_30599">
<rect width="48" height="48" fill="white" transform="translate(24 24)"/>
</clipPath>
</defs>
</svg>
