<svg width="96" height="96" viewBox="0 0 96 96" fill="none" xmlns="http://www.w3.org/2000/svg">
<rect x="0.5" y="0.5" width="95" height="95" rx="14.0741" fill="white"/>
<g clip-path="url(#clip0_2344_30595)">
<path d="M48.0007 77.875C58.9797 77.875 67.9173 68.9374 67.9173 57.9583C67.9173 52.9294 66.0252 48.3361 62.9382 44.8258V31.8177L62.9133 31.5936C61.5066 23.7888 55.2329 18.125 48.0007 18.125C40.7684 18.125 34.4947 23.7888 33.088 31.5936L33.0632 44.8258C29.9761 48.3361 28.084 52.9294 28.084 57.9583C28.084 68.9374 37.0216 77.875 48.0007 77.875ZM49.2454 60.0994V66.6719C49.2454 67.3565 48.6853 67.9167 48.0007 67.9167C47.316 67.9167 46.7559 67.3565 46.7559 66.6719V60.0994C46.0214 59.6637 45.5111 58.8795 45.5111 57.9583C45.5111 56.5891 46.6314 55.4688 48.0007 55.4688C49.3699 55.4688 50.4902 56.5891 50.4902 57.9583C50.4902 58.8795 49.9799 59.6761 49.2454 60.0994ZM48.0007 20.6146C53.9881 20.6146 59.2162 25.3697 60.4486 31.9297V42.4358C57.0378 39.6972 52.706 38.0417 48.0007 38.0417C43.2953 38.0417 38.9635 39.6972 35.5527 42.4358V31.9297C36.7851 25.3697 42.0132 20.6146 48.0007 20.6146Z" fill="#FF5E00"/>
</g>
<defs>
<clipPath id="clip0_2344_30595">
<rect width="39.8333" height="59.75" fill="white" transform="translate(28.084 18.125)"/>
</clipPath>
</defs>
</svg>
