<svg width="36" height="37" viewBox="0 0 36 37" fill="none" xmlns="http://www.w3.org/2000/svg">
<path d="M26.1757 4.1193C25.3381 4.1193 24.4431 5.05537 23.8002 6.58266H22.0454C22.2455 6.01161 22.4973 5.45999 22.7976 4.93467C21.993 5.34944 21.2711 5.90797 20.6676 6.58266H18.6041C20.216 4.11108 23.0053 2.47705 26.1757 2.47705C31.164 2.47705 35.208 6.52108 35.208 11.5094C35.208 16.4977 31.164 20.5417 26.1757 20.5417V18.8995C27.6192 18.8995 29.2302 16.12 29.438 12.3305H26.1757V10.6883H29.438C29.2302 6.89879 27.6192 4.1193 26.1757 4.1193ZM33.5206 10.6883C33.3851 9.4766 32.9521 8.31723 32.2602 7.31339C31.5682 6.30955 30.6388 5.49239 29.5546 4.93467C30.0308 5.75826 30.4176 6.75428 30.6853 7.86854C30.8963 8.74386 31.0334 9.69307 31.0827 10.6883H33.5206ZM33.5206 12.3305H31.0819C31.0375 13.2807 30.9048 14.2247 30.6853 15.1503C30.4176 16.2645 30.0308 17.2605 29.5538 18.0841C30.6381 17.5265 31.5677 16.7094 32.2598 15.7055C32.9519 14.7017 33.385 13.5423 33.5206 12.3305ZM34.3869 33.6797V35.3219H1.54199V33.6797H3.18424V9.86962C3.18391 9.65395 3.22607 9.44034 3.3083 9.24097C3.39053 9.0416 3.51123 8.86038 3.6635 8.70765C3.81576 8.55492 3.99662 8.43369 4.19575 8.35086C4.39487 8.26803 4.60836 8.22523 4.82402 8.22491H22.8936C23.7993 8.22491 24.5334 8.96556 24.5334 9.86962V33.6797H29.4602V23.8262H26.1757V22.184H30.2813C30.3891 22.184 30.4959 22.2052 30.5955 22.2465C30.6951 22.2878 30.7856 22.3482 30.8619 22.4245C30.9381 22.5007 30.9986 22.5913 31.0399 22.6909C31.0812 22.7905 31.1024 22.8973 31.1024 23.0051V33.6797H34.3869ZM22.8912 33.6797V9.86962L4.82402 9.86715L4.82648 33.6797H22.8912ZM8.93209 23.8262H18.7856V25.4685H8.93209V23.8262ZM8.93209 18.8995H18.7856V20.5417H8.93209V18.8995ZM8.93209 13.9728H18.7856V15.615H8.93209V13.9728ZM8.93209 28.753H18.7856V30.3952H8.93209V28.753Z" fill="#D0BFAC"/>
</svg>
