<svg width="36" height="37" viewBox="0 0 36 37" fill="none" xmlns="http://www.w3.org/2000/svg">
<g clip-path="url(#clip0_274_651)">
<path d="M27.123 9.28066H17.993V30.7998H27.123V9.28066ZM18.8191 27.4986H23.0379V26.6197H18.8191V25.5264H20.9285V24.6475H18.8191V23.4521H20.9285V22.5732H18.8191V21.4799H20.9285V20.601H18.8191V19.4162H20.9285V18.5373H18.8191V17.4439H23.0379V16.565H18.8191V15.3697H20.9285V14.4908H18.8191V13.3975H20.9285V12.5186H18.8191V10.1455H26.3074V29.8506H18.8191V27.4986ZM12.7898 8.89043L9.0457 14.308V30.7998H16.534V14.308L12.7898 8.89043ZM12.7688 10.0857L15.6059 14.308H9.93164L12.7688 10.0857ZM15.6164 29.8119H9.81563V15.2572H15.6164V29.8119ZM34.2281 5.22363H35.9473V1.00488H31.7285V2.66426H4.27148V1.04004H0.0527344V5.25879H1.74023V32.5752H0.0527344V36.7939H4.27148V35.1873H31.7285V36.7588H35.9473V32.54H34.2281V5.22363ZM32.523 1.79941H35.1527V4.4291H32.523V1.79941ZM0.847266 1.83457H3.47695V4.46426H0.847266V1.83457ZM3.47695 35.9994H0.847266V33.3697H3.47695V35.9994ZM4.27148 34.3084V32.5752H2.61914V5.25879H4.27148V3.54316H31.7285V5.22363H33.3492V32.54H31.7285V34.3084H4.27148ZM35.1527 35.9643H32.523V33.3346H35.1527V35.9643Z" fill="#D0BFAC" stroke="#D0BFAC"/>
</g>
<defs>
<clipPath id="clip0_274_651">
<rect width="36" height="36" fill="white" transform="translate(0 0.899414)"/>
</clipPath>
</defs>
</svg>
