<svg width="61" height="60" viewBox="0 0 61 60" fill="none" xmlns="http://www.w3.org/2000/svg">
<g clip-path="url(#clip0_77_1020)">
<path d="M59.4166 25H52.2791C51.7791 23.025 51.1416 20.8375 50.3291 19.175L55.4041 14.0875C55.6416 13.85 55.7666 13.5375 55.7666 13.2C55.7666 12.8625 55.6291 12.55 55.4041 12.3125L48.3291 5.2375C47.8416 4.75 47.0541 4.75 46.5666 5.2375L41.4791 10.3125C39.8166 9.50001 37.6291 8.8625 35.6541 8.375V1.25C35.6541 0.5625 35.0916 0 34.4041 0H26.9041C26.2166 0 25.6541 0.5625 25.6541 1.25V8.3875C23.6791 8.88751 21.4916 9.52501 19.8291 10.325L14.7416 5.25C14.2541 4.7625 13.4666 4.7625 12.9791 5.25L5.90413 12.325C5.41663 12.8125 5.41663 13.6 5.90413 14.0875L10.9916 19.175C10.1916 20.8375 9.54163 23.025 9.04163 25H1.91663C1.22913 25 0.666626 25.5625 0.666626 26.25V33.75C0.666626 34.4375 1.22913 35 1.91663 35H9.05413C9.55413 36.975 10.1916 39.175 11.0041 40.825L5.91663 45.9125C5.67913 46.15 5.55413 46.4625 5.55413 46.8C5.55413 47.1375 5.69163 47.45 5.91663 47.6875L12.9916 54.7625C13.4666 55.2375 14.2916 55.2375 14.7541 54.7625L19.8291 49.675C21.4916 50.4875 23.6791 51.125 25.6541 51.625V58.7625C25.6541 59.45 26.2166 60.0125 26.9041 60.0125H34.4041C35.0916 60.0125 35.6541 59.45 35.6541 58.7625V51.625C37.6291 51.125 39.8291 50.4875 41.4791 49.675L46.5666 54.75C47.0541 55.2375 47.8416 55.2375 48.3291 54.75L55.4041 47.675C55.8916 47.1875 55.8916 46.4 55.4041 45.9125L50.3291 40.825C51.1416 39.1625 51.7791 36.975 52.2791 35H59.4166C60.1041 35 60.6666 34.4375 60.6666 33.75V26.25C60.6666 25.5625 60.1041 25 59.4166 25ZM30.6666 40C25.1541 40 20.6666 35.5125 20.6666 30C20.6666 24.4875 25.1541 20 30.6666 20C36.1791 20 40.6666 24.4875 40.6666 30C40.6666 35.5125 36.1791 40 30.6666 40Z" fill="#FF5E00"/>
</g>
<defs>
<clipPath id="clip0_77_1020">
<rect width="60" height="60" fill="white" transform="translate(0.666626)"/>
</clipPath>
</defs>
</svg>
