<svg width="61" height="60" viewBox="0 0 61 60" fill="none" xmlns="http://www.w3.org/2000/svg">
<g clip-path="url(#clip0_97_6984)">
<path d="M30.3333 0C13.7958 0 0.333252 13.4625 0.333252 30C0.333252 37.95 3.40825 45.4375 9.00825 51.1C14.6958 56.8375 22.2583 60 30.3333 60C38.4083 60 46.0083 56.825 51.6833 51.0625C57.2583 45.4125 60.3333 37.925 60.3333 30C60.3333 13.4625 46.8708 0 30.3333 0ZM50.5708 48.575C47.9333 47.0125 43.9708 45.5625 39.7708 44.05C38.7208 43.675 37.6583 43.2875 36.5833 42.8875V38.2625C37.8333 37.4875 40.0457 35.5 40.3083 30.925C41.2708 30.3625 41.8833 29.1125 41.8833 27.5C41.8833 26.05 41.3833 24.8875 40.5833 24.2625C41.1833 22.375 42.2833 18.9 41.5458 15.95C40.6833 12.4875 35.9708 11.25 32.2083 11.25C28.8583 11.25 24.7583 12.225 23.2833 14.8875C21.5208 14.8 20.5458 15.575 20.0583 16.2125C18.4708 18.3125 19.5208 22.1375 20.1083 24.2375C19.2833 24.8625 18.7833 26.0375 18.7833 27.5C18.7833 29.1 19.3958 30.3625 20.3583 30.925C20.6208 35.5 22.8333 37.4875 24.0833 38.2625V42.8875C23.1208 43.25 22.1333 43.6 21.1458 43.9625C17.0958 45.4375 12.9208 46.95 10.1333 48.6125C5.44575 43.525 2.84575 36.9625 2.84575 30.0125C2.83325 14.8375 15.1708 2.5 30.3333 2.5C45.4958 2.5 57.8333 14.8375 57.8333 30C57.8333 36.9375 55.2458 43.4875 50.5708 48.575Z" fill="#FF5E00"/>
</g>
<defs>
<clipPath id="clip0_97_6984">
<rect width="60" height="60" fill="white" transform="translate(0.333252)"/>
</clipPath>
</defs>
</svg>
