<svg width="44" height="60" viewBox="0 0 44 60" fill="none" xmlns="http://www.w3.org/2000/svg">
<g clip-path="url(#clip0_77_1063)">
<path d="M15.9624 59.4376C16.1999 59.7876 16.5874 60.0001 16.9999 60.0001H36.9999C37.5999 60.0001 38.1249 59.5626 38.2249 58.9751L40.7124 45.2876C41.4124 42.2376 40.4249 38.6126 37.1874 37.5751L26.9874 34.1126V20.0126C26.9874 17.2501 24.7499 15.0126 21.9874 15.0126C19.2249 15.0126 16.9874 17.2501 16.9874 20.0126V43.5126C13.2999 38.5876 10.8874 37.5126 8.23739 37.5126C6.98739 37.5126 5.98739 38.0876 5.42489 39.1126C4.54989 40.7251 5.03739 43.0626 5.93739 44.4501L15.9374 59.4501L15.9624 59.4376Z" fill="#FF5E00"/>
<path d="M43.25 17.5C43.25 16.125 42.125 15 40.75 15H33.25C31.875 15 30.75 16.125 30.75 17.5C30.75 18.875 31.875 20 33.25 20H40.75C42.125 20 43.25 18.875 43.25 17.5Z" fill="#FF5E00"/>
<path d="M32.5126 13.0125L37.5126 8.01253C38.4876 7.03753 38.4876 5.45002 37.5126 4.47502C36.5376 3.50002 34.9501 3.50002 33.9751 4.47502L28.9751 9.47503C28.0001 10.45 28.0001 12.0375 28.9751 13.0125C29.4626 13.5 30.1001 13.75 30.7376 13.75C31.3751 13.75 32.0126 13.5 32.5001 13.0125H32.5126Z" fill="#FF5E00"/>
<path d="M24.5 10V2.5C24.5 1.125 23.375 0 22 0C20.625 0 19.5 1.125 19.5 2.5V10C19.5 11.375 20.625 12.5 22 12.5C23.375 12.5 24.5 11.375 24.5 10Z" fill="#FF5E00"/>
<path d="M13.2501 13.75C13.8876 13.75 14.5251 13.5 15.0126 13.0125C15.9876 12.0375 15.9876 10.45 15.0126 9.47503L10.0126 4.47502C9.03765 3.50002 7.45015 3.50002 6.47515 4.47502C5.50015 5.45002 5.50015 7.03753 6.47515 8.01253L11.4751 13.0125C11.9626 13.5 12.6001 13.75 13.2376 13.75H13.2501Z" fill="#FF5E00"/>
<path d="M0.75 17.5C0.75 18.875 1.875 20 3.25 20H10.75C12.125 20 13.25 18.875 13.25 17.5C13.25 16.125 12.125 15 10.75 15H3.25C1.875 15 0.75 16.125 0.75 17.5Z" fill="#FF5E00"/>
</g>
<defs>
<clipPath id="clip0_77_1063">
<rect width="42.5" height="60" fill="white" transform="translate(0.75)"/>
</clipPath>
</defs>
</svg>
