<svg width="334" height="203" viewBox="0 0 334 203" fill="none" xmlns="http://www.w3.org/2000/svg">
<rect width="6.76667" height="6.76667" fill="white"/>
<rect x="21.8037" width="6.76667" height="6.76667" fill="white"/>
<rect x="43.6074" width="6.76667" height="6.76667" fill="white"/>
<rect x="65.4111" width="6.76667" height="6.76667" fill="white"/>
<rect x="87.2148" width="6.76667" height="6.76667" fill="white"/>
<rect x="109.019" width="6.76667" height="6.76667" fill="white"/>
<rect x="130.822" width="6.76667" height="6.76667" fill="white"/>
<rect x="152.626" width="6.76667" height="6.76667" fill="white"/>
<rect x="174.43" width="6.76667" height="6.76667" fill="white"/>
<rect x="196.233" width="6.76667" height="6.76667" fill="white"/>
<rect x="218.037" width="6.76667" height="6.76667" fill="white"/>
<rect x="239.841" width="6.76667" height="6.76667" fill="white"/>
<rect x="261.645" width="6.76667" height="6.76667" fill="white"/>
<rect x="283.448" width="6.76667" height="6.76667" fill="white"/>
<rect x="305.252" width="6.76667" height="6.76667" fill="white"/>
<rect x="327.056" width="6.76667" height="6.76667" fill="white"/>
<rect y="21.8037" width="6.76667" height="6.76667" fill="white"/>
<rect x="21.8037" y="21.8037" width="6.76667" height="6.76667" fill="white"/>
<rect x="43.6074" y="21.8037" width="6.76667" height="6.76667" fill="white"/>
<rect x="65.4111" y="21.8037" width="6.76667" height="6.76667" fill="white"/>
<rect x="87.2148" y="21.8037" width="6.76667" height="6.76667" fill="white"/>
<rect x="109.019" y="21.8037" width="6.76667" height="6.76667" fill="white"/>
<rect x="130.822" y="21.8037" width="6.76667" height="6.76667" fill="white"/>
<rect x="152.626" y="21.8037" width="6.76667" height="6.76667" fill="white"/>
<rect x="174.43" y="21.8037" width="6.76667" height="6.76667" fill="white"/>
<rect x="196.233" y="21.8037" width="6.76667" height="6.76667" fill="white"/>
<rect x="218.037" y="21.8037" width="6.76667" height="6.76667" fill="white"/>
<rect x="239.841" y="21.8037" width="6.76667" height="6.76667" fill="white"/>
<rect x="261.645" y="21.8037" width="6.76667" height="6.76667" fill="white"/>
<rect x="283.448" y="21.8037" width="6.76667" height="6.76667" fill="white"/>
<rect x="305.252" y="21.8037" width="6.76667" height="6.76667" fill="white"/>
<rect x="327.056" y="21.8037" width="6.76667" height="6.76667" fill="white"/>
<rect y="43.6074" width="6.76667" height="6.76667" fill="white"/>
<rect x="21.8037" y="43.6074" width="6.76667" height="6.76667" fill="white"/>
<rect x="43.6074" y="43.6074" width="6.76667" height="6.76667" fill="white"/>
<rect x="65.4111" y="43.6074" width="6.76667" height="6.76667" fill="white"/>
<rect x="87.2148" y="43.6074" width="6.76667" height="6.76667" fill="white"/>
<rect x="109.019" y="43.6074" width="6.76667" height="6.76667" fill="white"/>
<rect x="130.822" y="43.6074" width="6.76667" height="6.76667" fill="white"/>
<rect x="152.626" y="43.6074" width="6.76667" height="6.76667" fill="white"/>
<rect x="174.43" y="43.6074" width="6.76667" height="6.76667" fill="white"/>
<rect x="196.233" y="43.6074" width="6.76667" height="6.76667" fill="white"/>
<rect x="218.037" y="43.6074" width="6.76667" height="6.76667" fill="white"/>
<rect x="239.841" y="43.6074" width="6.76667" height="6.76667" fill="white"/>
<rect x="261.645" y="43.6074" width="6.76667" height="6.76667" fill="white"/>
<rect x="283.448" y="43.6074" width="6.76667" height="6.76667" fill="white"/>
<rect x="305.252" y="43.6074" width="6.76667" height="6.76667" fill="white"/>
<rect x="327.056" y="43.6074" width="6.76667" height="6.76667" fill="white"/>
<rect y="65.4111" width="6.76667" height="6.76667" fill="white"/>
<rect x="21.8037" y="65.4111" width="6.76667" height="6.76667" fill="white"/>
<rect x="43.6074" y="65.4111" width="6.76667" height="6.76667" fill="white"/>
<rect x="65.4111" y="65.4111" width="6.76667" height="6.76667" fill="white"/>
<rect x="87.2148" y="65.4111" width="6.76667" height="6.76667" fill="white"/>
<rect x="109.019" y="65.4111" width="6.76667" height="6.76667" fill="white"/>
<rect x="130.822" y="65.4111" width="6.76667" height="6.76667" fill="white"/>
<rect x="152.626" y="65.4111" width="6.76667" height="6.76667" fill="white"/>
<rect x="174.43" y="65.4111" width="6.76667" height="6.76667" fill="white"/>
<rect x="196.233" y="65.4111" width="6.76667" height="6.76667" fill="white"/>
<rect x="218.037" y="65.4111" width="6.76667" height="6.76667" fill="white"/>
<rect x="239.841" y="65.4111" width="6.76667" height="6.76667" fill="white"/>
<rect x="261.645" y="65.4111" width="6.76667" height="6.76667" fill="white"/>
<rect x="283.448" y="65.4111" width="6.76667" height="6.76667" fill="white"/>
<rect x="305.252" y="65.4111" width="6.76667" height="6.76667" fill="white"/>
<rect x="327.056" y="65.4111" width="6.76667" height="6.76667" fill="white"/>
<rect y="87.2148" width="6.76667" height="6.76667" fill="white"/>
<rect x="21.8037" y="87.2148" width="6.76667" height="6.76667" fill="white"/>
<rect x="43.6074" y="87.2148" width="6.76667" height="6.76667" fill="white"/>
<rect x="65.4111" y="87.2148" width="6.76667" height="6.76667" fill="white"/>
<rect x="87.2148" y="87.2148" width="6.76667" height="6.76667" fill="white"/>
<rect x="109.019" y="87.2148" width="6.76667" height="6.76667" fill="white"/>
<rect x="130.822" y="87.2148" width="6.76667" height="6.76667" fill="white"/>
<rect x="152.626" y="87.2148" width="6.76667" height="6.76667" fill="white"/>
<rect x="174.43" y="87.2148" width="6.76667" height="6.76667" fill="white"/>
<rect x="196.233" y="87.2148" width="6.76667" height="6.76667" fill="white"/>
<rect x="218.037" y="87.2148" width="6.76667" height="6.76667" fill="white"/>
<rect x="239.841" y="87.2148" width="6.76667" height="6.76667" fill="white"/>
<rect x="261.645" y="87.2148" width="6.76667" height="6.76667" fill="white"/>
<rect x="283.448" y="87.2148" width="6.76667" height="6.76667" fill="white"/>
<rect x="305.252" y="87.2148" width="6.76667" height="6.76667" fill="white"/>
<rect x="327.056" y="87.2148" width="6.76667" height="6.76667" fill="white"/>
<rect y="109.019" width="6.76667" height="6.76667" fill="white"/>
<rect x="21.8037" y="109.019" width="6.76667" height="6.76667" fill="white"/>
<rect x="43.6074" y="109.019" width="6.76667" height="6.76667" fill="white"/>
<rect x="65.4111" y="109.019" width="6.76667" height="6.76667" fill="white"/>
<rect x="87.2148" y="109.019" width="6.76667" height="6.76667" fill="white"/>
<rect x="109.019" y="109.019" width="6.76667" height="6.76667" fill="white"/>
<rect x="130.822" y="109.019" width="6.76667" height="6.76667" fill="white"/>
<rect x="152.626" y="109.019" width="6.76667" height="6.76667" fill="white"/>
<rect x="174.43" y="109.019" width="6.76667" height="6.76667" fill="white"/>
<rect x="196.233" y="109.019" width="6.76667" height="6.76667" fill="white"/>
<rect x="218.037" y="109.019" width="6.76667" height="6.76667" fill="white"/>
<rect x="239.841" y="109.019" width="6.76667" height="6.76667" fill="white"/>
<rect x="261.645" y="109.019" width="6.76667" height="6.76667" fill="white"/>
<rect x="283.448" y="109.019" width="6.76667" height="6.76667" fill="white"/>
<rect x="305.252" y="109.019" width="6.76667" height="6.76667" fill="white"/>
<rect x="327.056" y="109.019" width="6.76667" height="6.76667" fill="white"/>
<rect y="130.822" width="6.76667" height="6.76667" fill="white"/>
<rect x="21.8037" y="130.822" width="6.76667" height="6.76667" fill="white"/>
<rect x="43.6074" y="130.822" width="6.76667" height="6.76667" fill="white"/>
<rect x="65.4111" y="130.822" width="6.76667" height="6.76667" fill="white"/>
<rect x="87.2148" y="130.822" width="6.76667" height="6.76667" fill="white"/>
<rect x="109.019" y="130.822" width="6.76667" height="6.76667" fill="white"/>
<rect x="130.822" y="130.822" width="6.76667" height="6.76667" fill="white"/>
<rect x="152.626" y="130.822" width="6.76667" height="6.76667" fill="white"/>
<rect x="174.43" y="130.822" width="6.76667" height="6.76667" fill="white"/>
<rect x="196.233" y="130.822" width="6.76667" height="6.76667" fill="white"/>
<rect x="218.037" y="130.822" width="6.76667" height="6.76667" fill="white"/>
<rect x="239.841" y="130.822" width="6.76667" height="6.76667" fill="white"/>
<rect x="261.645" y="130.822" width="6.76667" height="6.76667" fill="white"/>
<rect x="283.448" y="130.822" width="6.76667" height="6.76667" fill="white"/>
<rect x="305.252" y="130.822" width="6.76667" height="6.76667" fill="white"/>
<rect x="327.056" y="130.822" width="6.76667" height="6.76667" fill="white"/>
<rect y="152.626" width="6.76667" height="6.76667" fill="white"/>
<rect x="21.8037" y="152.626" width="6.76667" height="6.76667" fill="white"/>
<rect x="43.6074" y="152.626" width="6.76667" height="6.76667" fill="white"/>
<rect x="65.4111" y="152.626" width="6.76667" height="6.76667" fill="white"/>
<rect x="87.2148" y="152.626" width="6.76667" height="6.76667" fill="white"/>
<rect x="109.019" y="152.626" width="6.76667" height="6.76667" fill="white"/>
<rect x="130.822" y="152.626" width="6.76667" height="6.76667" fill="white"/>
<rect x="152.626" y="152.626" width="6.76667" height="6.76667" fill="white"/>
<rect x="174.43" y="152.626" width="6.76667" height="6.76667" fill="white"/>
<rect x="196.233" y="152.626" width="6.76667" height="6.76667" fill="white"/>
<rect x="218.037" y="152.626" width="6.76667" height="6.76667" fill="white"/>
<rect x="239.841" y="152.626" width="6.76667" height="6.76667" fill="white"/>
<rect x="261.645" y="152.626" width="6.76667" height="6.76667" fill="white"/>
<rect x="283.448" y="152.626" width="6.76667" height="6.76667" fill="white"/>
<rect x="305.252" y="152.626" width="6.76667" height="6.76667" fill="white"/>
<rect x="327.056" y="152.626" width="6.76667" height="6.76667" fill="white"/>
<rect y="174.43" width="6.76667" height="6.76667" fill="white"/>
<rect x="21.8037" y="174.43" width="6.76667" height="6.76667" fill="white"/>
<rect x="43.6074" y="174.43" width="6.76667" height="6.76667" fill="white"/>
<rect x="65.4111" y="174.43" width="6.76667" height="6.76667" fill="white"/>
<rect x="87.2148" y="174.43" width="6.76667" height="6.76667" fill="white"/>
<rect x="109.019" y="174.43" width="6.76667" height="6.76667" fill="white"/>
<rect x="130.822" y="174.43" width="6.76667" height="6.76667" fill="white"/>
<rect x="152.626" y="174.43" width="6.76667" height="6.76667" fill="white"/>
<rect x="174.43" y="174.43" width="6.76667" height="6.76667" fill="white"/>
<rect x="196.233" y="174.43" width="6.76667" height="6.76667" fill="white"/>
<rect x="218.037" y="174.43" width="6.76667" height="6.76667" fill="white"/>
<rect x="239.841" y="174.43" width="6.76667" height="6.76667" fill="white"/>
<rect x="261.645" y="174.43" width="6.76667" height="6.76667" fill="white"/>
<rect x="283.448" y="174.43" width="6.76667" height="6.76667" fill="white"/>
<rect x="305.252" y="174.43" width="6.76667" height="6.76667" fill="white"/>
<rect x="327.056" y="174.43" width="6.76667" height="6.76667" fill="white"/>
<rect y="196.233" width="6.76667" height="6.76667" fill="white"/>
<rect x="21.8037" y="196.233" width="6.76667" height="6.76667" fill="white"/>
<rect x="43.6074" y="196.233" width="6.76667" height="6.76667" fill="white"/>
<rect x="65.4111" y="196.233" width="6.76667" height="6.76667" fill="white"/>
<rect x="87.2148" y="196.233" width="6.76667" height="6.76667" fill="white"/>
<rect x="109.019" y="196.233" width="6.76667" height="6.76667" fill="white"/>
<rect x="130.822" y="196.233" width="6.76667" height="6.76667" fill="white"/>
<rect x="152.626" y="196.233" width="6.76667" height="6.76667" fill="white"/>
<rect x="174.43" y="196.233" width="6.76667" height="6.76667" fill="white"/>
<rect x="196.233" y="196.233" width="6.76667" height="6.76667" fill="white"/>
<rect x="218.037" y="196.233" width="6.76667" height="6.76667" fill="white"/>
<rect x="239.841" y="196.233" width="6.76667" height="6.76667" fill="white"/>
<rect x="261.645" y="196.233" width="6.76667" height="6.76667" fill="white"/>
<rect x="283.448" y="196.233" width="6.76667" height="6.76667" fill="white"/>
<rect x="305.252" y="196.233" width="6.76667" height="6.76667" fill="white"/>
<rect x="327.056" y="196.233" width="6.76667" height="6.76667" fill="white"/>
</svg>
