<svg width="36" height="37" viewBox="0 0 36 37" fill="none" xmlns="http://www.w3.org/2000/svg">
<g clip-path="url(#clip0_274_629)">
<path d="M31.8371 25.0621C30.8372 23.7197 29.0871 23.3534 27.3366 23.1095C25.8363 22.8656 24.3365 22.6213 23.4612 21.6448C22.7111 20.9126 22.7111 19.9361 23.2115 18.8381C23.4612 18.5942 23.7114 18.2279 23.8365 17.8616C23.9616 17.7397 23.9616 17.6177 23.9616 17.4953C24.2114 17.0071 24.3365 16.3969 24.4616 15.7867C25.0866 15.5428 25.5866 15.0545 25.7117 14.3224L26.0865 12.4918C26.2116 11.7596 25.8363 11.0275 25.3364 10.6612C25.8363 8.34234 25.8363 5.53569 24.2109 3.46119C23.3361 2.36274 21.5856 0.898438 18.3353 0.898438C14.585 0.898438 12.7094 2.36274 11.7095 3.58314C10.3347 5.41374 9.95944 7.85454 10.7096 10.6612C10.3347 11.027 10.2096 11.6372 10.2096 12.2474L10.5845 14.078C10.7096 14.6882 11.0844 15.1765 11.5844 15.4204C11.9592 16.8847 12.4596 17.9831 13.3344 18.7153C13.7093 19.5694 13.8344 20.6678 13.2093 21.4C12.5843 22.1321 11.084 22.4984 9.70879 22.7423C7.83364 23.2306 5.83339 23.7188 4.58329 25.0612C2.45884 27.3809 2.70904 32.5064 2.70904 32.9947C2.70904 33.2386 2.83414 33.6049 3.08389 33.7268C3.33364 33.8488 8.20939 36.8998 17.9604 36.8998C27.7119 36.8998 32.5872 33.8488 32.837 33.7268C33.0872 33.6049 33.2118 33.3605 33.2118 32.9947C33.3374 32.7503 33.5871 27.3809 31.8371 25.0621ZM18.0855 35.4355C17.4605 35.3135 17.0856 35.3135 16.5857 35.3135L17.9604 28.8452L18.0855 28.4794V28.1131L17.7107 25.7942L18.4608 25.306L19.211 25.7942L18.8361 28.1131V28.4794L18.9612 28.8452L20.3364 35.3135C19.5854 35.3135 18.9603 35.4355 18.0855 35.4355ZM31.3371 32.7503C30.3368 33.2386 27.2115 34.7029 22.086 35.1911L20.5862 28.4789L21.2112 24.9397L18.4608 23.231L15.7104 24.9397L16.3355 28.4789L14.8352 35.1911C9.20974 34.7029 5.83429 33.2386 4.70929 32.6284C4.70929 31.0417 4.83439 27.8687 6.08449 26.4044C6.83464 25.5503 8.58469 25.0621 10.2101 24.6958C11.9601 24.2075 13.7106 23.8417 14.7105 22.7432C15.7109 21.6448 15.8355 19.9366 15.0854 17.9836C15.0854 17.8616 14.9603 17.7397 14.8352 17.6177C14.085 17.0075 13.7102 16.0315 13.3349 14.5667C13.2098 14.2004 12.8349 13.8346 12.4601 13.8346L12.0852 12.004C12.5852 11.882 12.8354 11.3938 12.7103 10.9055C11.9601 8.58669 12.2103 6.26829 13.2107 4.80354C14.211 3.46119 15.9611 2.85099 18.3362 2.85099C20.3364 2.85099 21.8367 3.46119 22.7115 4.68159C24.0867 6.39024 23.8365 9.07494 23.3366 11.0275C23.2115 11.2718 23.3366 11.6377 23.4617 11.8816C23.5868 12.1259 23.9621 12.2479 24.2118 12.2479L23.837 14.0785C23.337 13.9565 22.8371 14.3228 22.712 14.8106C22.5869 15.6652 22.3371 16.3973 22.0869 16.8851C21.9618 17.129 21.8372 17.3734 21.587 17.6173L21.4619 17.7392C20.5866 19.5698 20.7117 21.2785 21.9618 22.6208C23.2119 23.9632 25.0871 24.3295 26.8376 24.6953C28.2128 24.9392 29.588 25.1836 30.213 25.9157C31.3371 27.5029 31.4618 31.0421 31.3371 32.7503Z" fill="#D0BFAC" stroke="#D0BFAC" stroke-width="0.4"/>
</g>
<defs>
<clipPath id="clip0_274_629">
<rect width="36" height="36" fill="white" transform="translate(0 0.899414)"/>
</clipPath>
</defs>
</svg>
