<svg width="36" height="37" viewBox="0 0 36 37" fill="none" xmlns="http://www.w3.org/2000/svg">
<path d="M21.0524 14.6367L21.0492 14.6744C21.0399 14.7778 21.0306 14.8687 21.0273 14.9381C20.9539 16.3702 20.4901 17.0815 20.0627 17.4346C19.806 18.7426 19.384 19.5594 19.0035 20.0595L19.0234 22.5743L17.7836 22.6563L15.3509 25.4976L14.5907 28.6315L18.2461 28.8296L18.0701 34.4146L3.26435 34.4204H3.26372C2.24485 34.4204 1.26832 33.7136 0.831733 32.6596L0.804582 32.585C0.649135 32.0901 0.706041 31.3523 0.782088 30.8206L0.790691 30.7607C0.950834 29.2215 1.64745 25.7095 4.6597 23.9539C5.78836 23.2951 6.22238 23.1784 6.75498 23.0743C7.05794 23.0159 7.40064 22.9487 8.47445 22.4266C9.59782 21.8822 10.3157 21.5048 10.7536 21.2648L10.7642 20.0653C10.3831 19.5646 9.96104 18.7455 9.70496 17.4345C9.28089 17.0807 8.81975 16.3687 8.74236 14.9388C8.73842 14.856 8.7278 14.7534 8.71723 14.6367C8.61403 13.5 8.5677 12.5007 9.02552 11.7606C8.90776 10.5723 8.87599 9.82337 8.92031 9.29523C9.14588 6.58614 11.2941 3.59263 14.8316 3.38067L14.8687 3.37842L14.9071 3.37992C18.9553 3.58225 20.6377 6.57059 20.8633 9.29815C20.9143 9.89346 20.858 10.7177 20.7502 11.7621C21.208 12.5059 21.159 13.5067 21.0524 14.6367ZM19.4733 12.7016L19.1518 12.4047L19.1928 11.932C19.2926 11.0154 19.3879 10.0051 19.341 9.45707C19.2378 8.20663 18.5967 5.2907 14.8766 5.08538C12.2177 5.26411 10.608 7.46436 10.4426 9.45336C10.4056 9.89725 10.4499 10.6853 10.5829 11.935L10.6305 12.3893L10.3176 12.6854C10.3136 12.6891 10.3076 12.6965 10.299 12.7068C10.1012 12.9639 10.1926 13.9698 10.2369 14.4536C10.2515 14.6109 10.2633 14.7401 10.268 14.8391C10.3123 15.656 10.5286 16.0393 10.6623 16.0969L11.0672 16.2698L11.1413 16.7454C11.3722 18.2122 11.8135 18.857 12.0549 19.111L12.299 19.3666L12.2732 22.3062L11.8696 22.544C11.4515 22.7899 10.6292 23.2404 9.08499 23.9901C7.84319 24.5936 7.40455 24.6786 7.01753 24.7539C6.65569 24.8247 6.36981 24.8802 5.36685 25.4644C2.9415 26.8781 2.41418 29.8369 2.30041 31.0429L2.23486 31.7343C2.23226 31.8553 2.2362 31.947 2.24413 32.0009C2.44327 32.4241 2.85475 32.7158 3.26364 32.7158L16.59 32.7099L16.6694 30.4515L12.5305 30.2277L14.0018 24.6054L17.0941 20.9937L17.4818 20.9678L17.4692 19.3593L17.7134 19.1037C17.9549 18.8504 18.3955 18.2071 18.6277 16.7424L18.7025 16.2646L19.1087 16.0933C19.2437 16.0357 19.4594 15.6546 19.501 14.8377C19.5063 14.7453 19.5169 14.6302 19.5288 14.4972L19.5328 14.4588C19.5778 13.9735 19.6731 12.9631 19.4733 12.7016ZM31.1074 27.5154V34.4153H19.5024V27.5457L15.6646 27.5354L25.2999 18.6827L35.2939 27.5124L31.1074 27.5154ZM25.3184 20.874L19.9113 25.8425L21.0306 25.8455V32.7106H29.5784V25.8115L30.9062 25.81L25.3184 20.874Z" fill="#D0BFAC" stroke="#D0BFAC" stroke-width="0.4"/>
</svg>
