<svg width="36" height="37" viewBox="0 0 36 37" fill="none" xmlns="http://www.w3.org/2000/svg">
<g clip-path="url(#clip0_274_642)">
<path d="M24.6498 6.5785C24.5708 6.46888 24.4703 6.38686 24.3455 6.33583C24.0832 6.22167 23.7154 5.94499 23.7332 5.76809C23.7831 5.27179 23.833 4.52828 23.6893 3.80367C23.4281 2.48562 22.6718 1.99461 22.0836 1.81431C21.8221 1.73418 21.1273 1.52175 16.0717 1.62759C13.6212 1.67899 11.306 1.78256 11.283 1.78332C11.2342 1.78559 11.1858 1.79277 11.1382 1.80486C10.3372 2.00822 10.0242 2.48411 9.90291 2.84736C9.65154 3.59805 10.0397 4.4421 10.3641 4.96637C10.3486 4.99207 10.3331 5.01853 10.3179 5.04499L10.2934 5.07863C10.2941 5.07901 10.2953 5.08015 10.2972 5.08128C10.028 5.55944 9.81597 6.14343 9.68972 6.53389C8.87818 7.29252 8.71337 8.064 8.72358 8.59129C8.74475 9.68255 9.48485 10.5277 9.88552 10.9065C9.96792 11.4659 10.2238 12.7034 10.9711 13.9448C11.8976 15.4843 13.7667 17.3195 17.4102 17.3195C19.7182 17.3195 21.6032 16.1212 22.8615 13.854C23.526 12.6573 23.8428 11.4689 23.9698 10.8864C24.812 10.3962 25.1389 9.76193 25.2629 9.29171C25.6114 7.96799 24.7492 6.71684 24.6498 6.5785ZM11.2648 3.30322C11.2697 3.28923 11.3177 3.25067 11.4292 3.21514C11.8613 3.19624 13.9293 3.10968 16.1038 3.06395C20.5796 2.97021 21.4906 3.13539 21.6629 3.18793C22.2348 3.36294 22.3656 4.19225 22.3429 5.02647C21.2063 4.71387 20.0671 4.61975 20.002 4.61446C19.7416 4.59367 19.4899 4.71652 19.3458 4.93462C18.0146 6.95006 17.4272 6.99882 17.3879 6.9992C17.2771 6.94175 17.0968 6.52747 17.0496 6.13663C17.034 6.00058 16.98 5.87181 16.8937 5.76547C16.8074 5.65913 16.6926 5.57966 16.5627 5.53641C16.4328 5.49315 16.2932 5.48793 16.1604 5.52134C16.0276 5.55475 15.9071 5.62541 15.8132 5.725C15.1298 6.4496 14.4089 6.60836 13.8707 6.59286C13.916 6.37741 13.9852 6.11206 14.0612 5.87619C14.1326 5.65431 14.0922 5.41126 13.9519 5.22492C13.8121 5.03819 13.5902 4.93122 13.357 4.93802C12.9348 4.94898 12.1841 4.58611 11.5918 4.22022C11.3646 3.84903 11.2145 3.45177 11.2648 3.30322ZM23.8723 8.92997C23.7819 9.26714 23.5064 9.5374 23.0297 9.75701C22.8116 9.85756 22.6582 10.0617 22.6208 10.2987C22.6185 10.3134 22.383 11.7702 21.5866 13.1888C20.5834 14.9763 19.1776 15.8823 17.409 15.8823C15.0428 15.8823 13.2995 14.9956 12.2272 13.247C11.3994 11.8968 11.2818 10.5066 11.2807 10.4948C11.2671 10.2907 11.1696 10.1082 11.0082 9.98267C10.7749 9.79746 10.1679 9.18096 10.1584 8.55879C10.1531 8.19365 10.3554 7.84325 10.7776 7.48718C10.8834 7.3976 10.9613 7.27967 11.0017 7.14699C11.1476 6.66619 11.3555 6.14948 11.5226 5.82819C11.8647 6.0032 12.1845 6.13738 12.4797 6.2281C12.3383 6.86653 12.3477 7.23318 12.5091 7.5212C12.6233 7.72532 12.8089 7.86744 13.0308 7.92112C14.0525 8.1687 15.0776 7.99558 15.9632 7.44636C16.1756 7.86555 16.5151 8.26698 17.0518 8.39587C17.1648 8.42309 17.279 8.4367 17.3943 8.4367C18.2557 8.4367 19.1928 7.67769 20.2973 6.08938C20.8843 6.16346 21.7986 6.32109 22.5153 6.58757C22.7708 7.0336 23.2032 7.36245 23.5706 7.55636C23.7502 7.86593 24.0016 8.44992 23.8723 8.92997ZM27.9066 20.6272C26.6199 19.1829 24.6933 18.3548 22.62 18.3548H10.8955C9.04525 18.3548 7.30158 18.9894 5.9858 20.1419C4.6428 21.3178 3.90308 22.8895 3.90308 24.567V35.3775C3.90308 35.6274 4.03084 35.8474 4.22437 35.9759C4.35515 36.1142 4.53999 36.2008 4.74562 36.2008H17.2276C17.6241 36.2008 17.9458 35.8791 17.9458 35.4826C17.9458 35.0861 17.6241 34.7644 17.2276 34.7644H10.7557V26.6082C10.7557 26.2117 10.434 25.89 10.0375 25.89C9.64096 25.89 9.31929 26.2117 9.31929 26.6082V34.7644H5.33906V24.567C5.33906 21.9336 7.83152 19.7911 10.8955 19.7911H13.233C13.3558 21.2732 14.4305 22.4888 15.8423 22.8245C15.8283 22.8838 15.8203 22.9458 15.8203 23.0093C15.8203 23.4573 16.1832 23.8201 16.6311 23.8201C17.079 23.8201 17.4419 23.4573 17.4419 23.0093C17.4419 22.9455 17.434 22.8838 17.42 22.8245C18.8318 22.4888 19.9064 21.2729 20.0293 19.7911H22.6204C24.2839 19.7911 25.8201 20.4443 26.8342 21.5828C27.098 21.8791 27.552 21.9052 27.8484 21.6414C28.1443 21.3776 28.1704 20.9236 27.9066 20.6272ZM16.6311 21.4807C15.6393 21.4807 14.8164 20.7452 14.6781 19.7911H18.5842C18.4459 20.7452 17.623 21.4807 16.6311 21.4807Z" fill="#D0BFAC" stroke="#D0BFAC" stroke-width="0.4"/>
<path d="M25.0778 36.0942H19.62C19.2235 36.0942 18.9019 35.7725 18.9019 35.376V24.8449C18.9019 24.5565 19.0742 24.296 19.3399 24.1834C19.4698 24.1283 19.6131 24.1128 19.7518 24.1386C19.8905 24.1645 20.0184 24.2307 20.1197 24.3289L25.4698 29.51C25.4755 29.5153 25.4808 29.521 25.4861 29.5263L25.6512 29.6967C25.9272 29.9817 25.92 30.4365 25.635 30.7124C25.35 30.9883 24.8953 30.9811 24.6193 30.6961L24.4621 30.534L20.3382 26.5398V34.6575H25.0778C25.4743 34.6575 25.796 34.9791 25.796 35.3757C25.796 35.7722 25.4747 36.0942 25.0778 36.0942Z" fill="#D0BFAC" stroke="#D0BFAC" stroke-width="0.4"/>
<path d="M25.5659 34.2231H21.6315C21.2659 34.2231 20.97 33.9271 20.97 33.5616V29.6271C20.97 29.4972 21.0082 29.3702 21.08 29.2619C21.1517 29.1536 21.2538 29.0688 21.3734 29.0181C21.493 28.9674 21.6249 28.9531 21.7526 28.9769C21.8803 29.0007 21.9981 29.0616 22.0915 29.152L24.0903 31.0876C24.0952 31.0926 24.1005 31.0975 24.1054 31.1028L26.0411 33.1016C26.1315 33.1949 26.1923 33.3128 26.2161 33.4405C26.2399 33.5682 26.2256 33.7001 26.1749 33.8198C26.1241 33.9393 26.0393 34.0413 25.9311 34.113C25.8228 34.1847 25.6958 34.223 25.5659 34.2231ZM22.2929 32.9001H24.0045L23.1623 32.0307L22.2929 31.1886V32.9001ZM31.3787 22.6694H27.7254C27.3289 22.6694 27.0072 22.9911 27.0072 23.3876V35.3759C27.0072 35.7725 27.3289 36.0941 27.7254 36.0941H31.3787C31.7752 36.0941 32.0969 35.7725 32.0969 35.3759V23.3876C32.0969 22.9911 31.7752 22.6694 31.3787 22.6694ZM28.4436 34.6578V24.1058H30.6605V25.0092H30.4923C30.0958 25.0092 29.7741 25.3309 29.7741 25.7274C29.7741 26.1239 30.0958 26.4456 30.4923 26.4456H30.6605V27.4915H30.4923C30.0958 27.4915 29.7741 27.8131 29.7741 28.2096C29.7741 28.6061 30.0958 28.9278 30.4923 28.9278H30.6605V29.9737H30.4923C30.0958 29.9737 29.7741 30.2954 29.7741 30.6919C29.7741 31.0884 30.0958 31.4101 30.4923 31.4101H30.6605V32.456H30.4923C30.0958 32.456 29.7741 32.7776 29.7741 33.1742C29.7741 33.5707 30.0958 33.8923 30.4923 33.8923H30.6605V34.6581H28.4436V34.6578Z" fill="#D0BFAC" stroke="#D0BFAC" stroke-width="0.4"/>
</g>
<defs>
<clipPath id="clip0_274_642">
<rect width="36" height="36" fill="white" transform="translate(0 0.899414)"/>
</clipPath>
</defs>
</svg>
