<svg width="268" height="421" viewBox="0 0 268 421" fill="none" xmlns="http://www.w3.org/2000/svg">
<rect width="6.76667" height="6.76667" fill="#F1EDE6"/>
<rect x="21.8037" width="6.76667" height="6.76667" fill="#F1EDE6"/>
<rect x="43.6074" width="6.76667" height="6.76667" fill="#F1EDE6"/>
<rect x="65.4111" width="6.76667" height="6.76667" fill="#F1EDE6"/>
<rect x="87.2148" width="6.76667" height="6.76667" fill="#F1EDE6"/>
<rect x="109.019" width="6.76667" height="6.76667" fill="#F1EDE6"/>
<rect x="130.822" width="6.76667" height="6.76667" fill="#F1EDE6"/>
<rect x="152.626" width="6.76667" height="6.76667" fill="#F1EDE6"/>
<rect x="174.43" width="6.76667" height="6.76667" fill="#F1EDE6"/>
<rect x="196.233" width="6.76667" height="6.76667" fill="#F1EDE6"/>
<rect x="218.037" width="6.76667" height="6.76667" fill="#F1EDE6"/>
<rect x="239.841" width="6.76667" height="6.76667" fill="#F1EDE6"/>
<rect x="261.645" width="6.76667" height="6.76667" fill="#F1EDE6"/>
<rect y="21.8037" width="6.76667" height="6.76667" fill="#F1EDE6"/>
<rect x="21.8037" y="21.8037" width="6.76667" height="6.76667" fill="#F1EDE6"/>
<rect x="43.6074" y="21.8037" width="6.76667" height="6.76667" fill="#F1EDE6"/>
<rect x="65.4111" y="21.8037" width="6.76667" height="6.76667" fill="#F1EDE6"/>
<rect x="87.2148" y="21.8037" width="6.76667" height="6.76667" fill="#F1EDE6"/>
<rect x="109.019" y="21.8037" width="6.76667" height="6.76667" fill="#F1EDE6"/>
<rect x="130.822" y="21.8037" width="6.76667" height="6.76667" fill="#F1EDE6"/>
<rect x="152.626" y="21.8037" width="6.76667" height="6.76667" fill="#F1EDE6"/>
<rect x="174.43" y="21.8037" width="6.76667" height="6.76667" fill="#F1EDE6"/>
<rect x="196.233" y="21.8037" width="6.76667" height="6.76667" fill="#F1EDE6"/>
<rect x="218.037" y="21.8037" width="6.76667" height="6.76667" fill="#F1EDE6"/>
<rect x="239.841" y="21.8037" width="6.76667" height="6.76667" fill="#F1EDE6"/>
<rect x="261.645" y="21.8037" width="6.76667" height="6.76667" fill="#F1EDE6"/>
<rect y="43.6074" width="6.76667" height="6.76667" fill="#F1EDE6"/>
<rect x="21.8037" y="43.6074" width="6.76667" height="6.76667" fill="#F1EDE6"/>
<rect x="43.6074" y="43.6074" width="6.76667" height="6.76667" fill="#F1EDE6"/>
<rect x="65.4111" y="43.6074" width="6.76667" height="6.76667" fill="#F1EDE6"/>
<rect x="87.2148" y="43.6074" width="6.76667" height="6.76667" fill="#F1EDE6"/>
<rect x="109.019" y="43.6074" width="6.76667" height="6.76667" fill="#F1EDE6"/>
<rect x="130.822" y="43.6074" width="6.76667" height="6.76667" fill="#F1EDE6"/>
<rect x="152.626" y="43.6074" width="6.76667" height="6.76667" fill="#F1EDE6"/>
<rect x="174.43" y="43.6074" width="6.76667" height="6.76667" fill="#F1EDE6"/>
<rect x="196.233" y="43.6074" width="6.76667" height="6.76667" fill="#F1EDE6"/>
<rect x="218.037" y="43.6074" width="6.76667" height="6.76667" fill="#F1EDE6"/>
<rect x="239.841" y="43.6074" width="6.76667" height="6.76667" fill="#F1EDE6"/>
<rect x="261.645" y="43.6074" width="6.76667" height="6.76667" fill="#F1EDE6"/>
<rect y="65.4111" width="6.76667" height="6.76667" fill="#F1EDE6"/>
<rect x="21.8037" y="65.4111" width="6.76667" height="6.76667" fill="#F1EDE6"/>
<rect x="43.6074" y="65.4111" width="6.76667" height="6.76667" fill="#F1EDE6"/>
<rect x="65.4111" y="65.4111" width="6.76667" height="6.76667" fill="#F1EDE6"/>
<rect x="87.2148" y="65.4111" width="6.76667" height="6.76667" fill="#F1EDE6"/>
<rect x="109.019" y="65.4111" width="6.76667" height="6.76667" fill="#F1EDE6"/>
<rect x="130.822" y="65.4111" width="6.76667" height="6.76667" fill="#F1EDE6"/>
<rect x="152.626" y="65.4111" width="6.76667" height="6.76667" fill="#F1EDE6"/>
<rect x="174.43" y="65.4111" width="6.76667" height="6.76667" fill="#F1EDE6"/>
<rect x="196.233" y="65.4111" width="6.76667" height="6.76667" fill="#F1EDE6"/>
<rect x="218.037" y="65.4111" width="6.76667" height="6.76667" fill="#F1EDE6"/>
<rect x="239.841" y="65.4111" width="6.76667" height="6.76667" fill="#F1EDE6"/>
<rect x="261.645" y="65.4111" width="6.76667" height="6.76667" fill="#F1EDE6"/>
<rect y="87.2148" width="6.76667" height="6.76667" fill="#F1EDE6"/>
<rect x="21.8037" y="87.2148" width="6.76667" height="6.76667" fill="#F1EDE6"/>
<rect x="43.6074" y="87.2148" width="6.76667" height="6.76667" fill="#F1EDE6"/>
<rect x="65.4111" y="87.2148" width="6.76667" height="6.76667" fill="#F1EDE6"/>
<rect x="87.2148" y="87.2148" width="6.76667" height="6.76667" fill="#F1EDE6"/>
<rect x="109.019" y="87.2148" width="6.76667" height="6.76667" fill="#F1EDE6"/>
<rect x="130.822" y="87.2148" width="6.76667" height="6.76667" fill="#F1EDE6"/>
<rect x="152.626" y="87.2148" width="6.76667" height="6.76667" fill="#F1EDE6"/>
<rect x="174.43" y="87.2148" width="6.76667" height="6.76667" fill="#F1EDE6"/>
<rect x="196.233" y="87.2148" width="6.76667" height="6.76667" fill="#F1EDE6"/>
<rect x="218.037" y="87.2148" width="6.76667" height="6.76667" fill="#F1EDE6"/>
<rect x="239.841" y="87.2148" width="6.76667" height="6.76667" fill="#F1EDE6"/>
<rect x="261.645" y="87.2148" width="6.76667" height="6.76667" fill="#F1EDE6"/>
<rect y="109.019" width="6.76667" height="6.76667" fill="#F1EDE6"/>
<rect x="21.8037" y="109.019" width="6.76667" height="6.76667" fill="#F1EDE6"/>
<rect x="43.6074" y="109.019" width="6.76667" height="6.76667" fill="#F1EDE6"/>
<rect x="65.4111" y="109.019" width="6.76667" height="6.76667" fill="#F1EDE6"/>
<rect x="87.2148" y="109.019" width="6.76667" height="6.76667" fill="#F1EDE6"/>
<rect x="109.019" y="109.019" width="6.76667" height="6.76667" fill="#F1EDE6"/>
<rect x="130.822" y="109.019" width="6.76667" height="6.76667" fill="#F1EDE6"/>
<rect x="152.626" y="109.019" width="6.76667" height="6.76667" fill="#F1EDE6"/>
<rect x="174.43" y="109.019" width="6.76667" height="6.76667" fill="#F1EDE6"/>
<rect x="196.233" y="109.019" width="6.76667" height="6.76667" fill="#F1EDE6"/>
<rect x="218.037" y="109.019" width="6.76667" height="6.76667" fill="#F1EDE6"/>
<rect x="239.841" y="109.019" width="6.76667" height="6.76667" fill="#F1EDE6"/>
<rect x="261.645" y="109.019" width="6.76667" height="6.76667" fill="#F1EDE6"/>
<rect y="130.822" width="6.76667" height="6.76667" fill="#F1EDE6"/>
<rect x="21.8037" y="130.822" width="6.76667" height="6.76667" fill="#F1EDE6"/>
<rect x="43.6074" y="130.822" width="6.76667" height="6.76667" fill="#F1EDE6"/>
<rect x="65.4111" y="130.822" width="6.76667" height="6.76667" fill="#F1EDE6"/>
<rect x="87.2148" y="130.822" width="6.76667" height="6.76667" fill="#F1EDE6"/>
<rect x="109.019" y="130.822" width="6.76667" height="6.76667" fill="#F1EDE6"/>
<rect x="130.822" y="130.822" width="6.76667" height="6.76667" fill="#F1EDE6"/>
<rect x="152.626" y="130.822" width="6.76667" height="6.76667" fill="#F1EDE6"/>
<rect x="174.43" y="130.822" width="6.76667" height="6.76667" fill="#F1EDE6"/>
<rect x="196.233" y="130.822" width="6.76667" height="6.76667" fill="#F1EDE6"/>
<rect x="218.037" y="130.822" width="6.76667" height="6.76667" fill="#F1EDE6"/>
<rect x="239.841" y="130.822" width="6.76667" height="6.76667" fill="#F1EDE6"/>
<rect x="261.645" y="130.822" width="6.76667" height="6.76667" fill="#F1EDE6"/>
<rect y="152.626" width="6.76667" height="6.76667" fill="#F1EDE6"/>
<rect x="21.8037" y="152.626" width="6.76667" height="6.76667" fill="#F1EDE6"/>
<rect x="43.6074" y="152.626" width="6.76667" height="6.76667" fill="#F1EDE6"/>
<rect x="65.4111" y="152.626" width="6.76667" height="6.76667" fill="#F1EDE6"/>
<rect x="87.2148" y="152.626" width="6.76667" height="6.76667" fill="#F1EDE6"/>
<rect x="109.019" y="152.626" width="6.76667" height="6.76667" fill="#F1EDE6"/>
<rect x="130.822" y="152.626" width="6.76667" height="6.76667" fill="#F1EDE6"/>
<rect x="152.626" y="152.626" width="6.76667" height="6.76667" fill="#F1EDE6"/>
<rect x="174.43" y="152.626" width="6.76667" height="6.76667" fill="#F1EDE6"/>
<rect x="196.233" y="152.626" width="6.76667" height="6.76667" fill="#F1EDE6"/>
<rect x="218.037" y="152.626" width="6.76667" height="6.76667" fill="#F1EDE6"/>
<rect x="239.841" y="152.626" width="6.76667" height="6.76667" fill="#F1EDE6"/>
<rect x="261.645" y="152.626" width="6.76667" height="6.76667" fill="#F1EDE6"/>
<rect y="174.43" width="6.76667" height="6.76667" fill="#F1EDE6"/>
<rect x="21.8037" y="174.43" width="6.76667" height="6.76667" fill="#F1EDE6"/>
<rect x="43.6074" y="174.43" width="6.76667" height="6.76667" fill="#F1EDE6"/>
<rect x="65.4111" y="174.43" width="6.76667" height="6.76667" fill="#F1EDE6"/>
<rect x="87.2148" y="174.43" width="6.76667" height="6.76667" fill="#F1EDE6"/>
<rect x="109.019" y="174.43" width="6.76667" height="6.76667" fill="#F1EDE6"/>
<rect x="130.822" y="174.43" width="6.76667" height="6.76667" fill="#F1EDE6"/>
<rect x="152.626" y="174.43" width="6.76667" height="6.76667" fill="#F1EDE6"/>
<rect x="174.43" y="174.43" width="6.76667" height="6.76667" fill="#F1EDE6"/>
<rect x="196.233" y="174.43" width="6.76667" height="6.76667" fill="#F1EDE6"/>
<rect x="218.037" y="174.43" width="6.76667" height="6.76667" fill="#F1EDE6"/>
<rect x="239.841" y="174.43" width="6.76667" height="6.76667" fill="#F1EDE6"/>
<rect x="261.645" y="174.43" width="6.76667" height="6.76667" fill="#F1EDE6"/>
<rect y="196.233" width="6.76667" height="6.76667" fill="#F1EDE6"/>
<rect x="21.8037" y="196.233" width="6.76667" height="6.76667" fill="#F1EDE6"/>
<rect x="43.6074" y="196.233" width="6.76667" height="6.76667" fill="#F1EDE6"/>
<rect x="65.4111" y="196.233" width="6.76667" height="6.76667" fill="#F1EDE6"/>
<rect x="87.2148" y="196.233" width="6.76667" height="6.76667" fill="#F1EDE6"/>
<rect x="109.019" y="196.233" width="6.76667" height="6.76667" fill="#F1EDE6"/>
<rect x="130.822" y="196.233" width="6.76667" height="6.76667" fill="#F1EDE6"/>
<rect x="152.626" y="196.233" width="6.76667" height="6.76667" fill="#F1EDE6"/>
<rect x="174.43" y="196.233" width="6.76667" height="6.76667" fill="#F1EDE6"/>
<rect x="196.233" y="196.233" width="6.76667" height="6.76667" fill="#F1EDE6"/>
<rect x="218.037" y="196.233" width="6.76667" height="6.76667" fill="#F1EDE6"/>
<rect x="239.841" y="196.233" width="6.76667" height="6.76667" fill="#F1EDE6"/>
<rect x="261.645" y="196.233" width="6.76667" height="6.76667" fill="#F1EDE6"/>
<rect y="218" width="6.76667" height="6.76667" fill="#F1EDE6"/>
<rect x="21.8037" y="218" width="6.76667" height="6.76667" fill="#F1EDE6"/>
<rect x="43.6074" y="218" width="6.76667" height="6.76667" fill="#F1EDE6"/>
<rect x="65.4111" y="218" width="6.76667" height="6.76667" fill="#F1EDE6"/>
<rect x="87.2148" y="218" width="6.76667" height="6.76667" fill="#F1EDE6"/>
<rect x="109.019" y="218" width="6.76667" height="6.76667" fill="#F1EDE6"/>
<rect x="130.822" y="218" width="6.76667" height="6.76667" fill="#F1EDE6"/>
<rect x="152.626" y="218" width="6.76667" height="6.76667" fill="#F1EDE6"/>
<rect x="174.43" y="218" width="6.76667" height="6.76667" fill="#F1EDE6"/>
<rect x="196.233" y="218" width="6.76667" height="6.76667" fill="#F1EDE6"/>
<rect x="218.037" y="218" width="6.76667" height="6.76667" fill="#F1EDE6"/>
<rect x="239.841" y="218" width="6.76667" height="6.76667" fill="#F1EDE6"/>
<rect x="261.645" y="218" width="6.76667" height="6.76667" fill="#F1EDE6"/>
<rect y="239.804" width="6.76667" height="6.76667" fill="#F1EDE6"/>
<rect x="21.8037" y="239.804" width="6.76667" height="6.76667" fill="#F1EDE6"/>
<rect x="43.6074" y="239.804" width="6.76667" height="6.76667" fill="#F1EDE6"/>
<rect x="65.4111" y="239.804" width="6.76667" height="6.76667" fill="#F1EDE6"/>
<rect x="87.2148" y="239.804" width="6.76667" height="6.76667" fill="#F1EDE6"/>
<rect x="109.019" y="239.804" width="6.76667" height="6.76667" fill="#F1EDE6"/>
<rect x="130.822" y="239.804" width="6.76667" height="6.76667" fill="#F1EDE6"/>
<rect x="152.626" y="239.804" width="6.76667" height="6.76667" fill="#F1EDE6"/>
<rect x="174.43" y="239.804" width="6.76667" height="6.76667" fill="#F1EDE6"/>
<rect x="196.233" y="239.804" width="6.76667" height="6.76667" fill="#F1EDE6"/>
<rect x="218.037" y="239.804" width="6.76667" height="6.76667" fill="#F1EDE6"/>
<rect x="239.841" y="239.804" width="6.76667" height="6.76667" fill="#F1EDE6"/>
<rect x="261.645" y="239.804" width="6.76667" height="6.76667" fill="#F1EDE6"/>
<rect y="261.607" width="6.76667" height="6.76667" fill="#F1EDE6"/>
<rect x="21.8037" y="261.607" width="6.76667" height="6.76667" fill="#F1EDE6"/>
<rect x="43.6074" y="261.607" width="6.76667" height="6.76667" fill="#F1EDE6"/>
<rect x="65.4111" y="261.607" width="6.76667" height="6.76667" fill="#F1EDE6"/>
<rect x="87.2148" y="261.607" width="6.76667" height="6.76667" fill="#F1EDE6"/>
<rect x="109.019" y="261.607" width="6.76667" height="6.76667" fill="#F1EDE6"/>
<rect x="130.822" y="261.607" width="6.76667" height="6.76667" fill="#F1EDE6"/>
<rect x="152.626" y="261.607" width="6.76667" height="6.76667" fill="#F1EDE6"/>
<rect x="174.43" y="261.607" width="6.76667" height="6.76667" fill="#F1EDE6"/>
<rect x="196.233" y="261.607" width="6.76667" height="6.76667" fill="#F1EDE6"/>
<rect x="218.037" y="261.607" width="6.76667" height="6.76667" fill="#F1EDE6"/>
<rect x="239.841" y="261.607" width="6.76667" height="6.76667" fill="#F1EDE6"/>
<rect x="261.645" y="261.607" width="6.76667" height="6.76667" fill="#F1EDE6"/>
<rect y="283.411" width="6.76667" height="6.76667" fill="#F1EDE6"/>
<rect x="21.8037" y="283.411" width="6.76667" height="6.76667" fill="#F1EDE6"/>
<rect x="43.6074" y="283.411" width="6.76667" height="6.76667" fill="#F1EDE6"/>
<rect x="65.4111" y="283.411" width="6.76667" height="6.76667" fill="#F1EDE6"/>
<rect x="87.2148" y="283.411" width="6.76667" height="6.76667" fill="#F1EDE6"/>
<rect x="109.019" y="283.411" width="6.76667" height="6.76667" fill="#F1EDE6"/>
<rect x="130.822" y="283.411" width="6.76667" height="6.76667" fill="#F1EDE6"/>
<rect x="152.626" y="283.411" width="6.76667" height="6.76667" fill="#F1EDE6"/>
<rect x="174.43" y="283.411" width="6.76667" height="6.76667" fill="#F1EDE6"/>
<rect x="196.233" y="283.411" width="6.76667" height="6.76667" fill="#F1EDE6"/>
<rect x="218.037" y="283.411" width="6.76667" height="6.76667" fill="#F1EDE6"/>
<rect x="239.841" y="283.411" width="6.76667" height="6.76667" fill="#F1EDE6"/>
<rect x="261.645" y="283.411" width="6.76667" height="6.76667" fill="#F1EDE6"/>
<rect y="305.215" width="6.76667" height="6.76667" fill="#F1EDE6"/>
<rect x="21.8037" y="305.215" width="6.76667" height="6.76667" fill="#F1EDE6"/>
<rect x="43.6074" y="305.215" width="6.76667" height="6.76667" fill="#F1EDE6"/>
<rect x="65.4111" y="305.215" width="6.76667" height="6.76667" fill="#F1EDE6"/>
<rect x="87.2148" y="305.215" width="6.76667" height="6.76667" fill="#F1EDE6"/>
<rect x="109.019" y="305.215" width="6.76667" height="6.76667" fill="#F1EDE6"/>
<rect x="130.822" y="305.215" width="6.76667" height="6.76667" fill="#F1EDE6"/>
<rect x="152.626" y="305.215" width="6.76667" height="6.76667" fill="#F1EDE6"/>
<rect x="174.43" y="305.215" width="6.76667" height="6.76667" fill="#F1EDE6"/>
<rect x="196.233" y="305.215" width="6.76667" height="6.76667" fill="#F1EDE6"/>
<rect x="218.037" y="305.215" width="6.76667" height="6.76667" fill="#F1EDE6"/>
<rect x="239.841" y="305.215" width="6.76667" height="6.76667" fill="#F1EDE6"/>
<rect x="261.645" y="305.215" width="6.76667" height="6.76667" fill="#F1EDE6"/>
<rect y="327.019" width="6.76667" height="6.76667" fill="#F1EDE6"/>
<rect x="21.8037" y="327.019" width="6.76667" height="6.76667" fill="#F1EDE6"/>
<rect x="43.6074" y="327.019" width="6.76667" height="6.76667" fill="#F1EDE6"/>
<rect x="65.4111" y="327.019" width="6.76667" height="6.76667" fill="#F1EDE6"/>
<rect x="87.2148" y="327.019" width="6.76667" height="6.76667" fill="#F1EDE6"/>
<rect x="109.019" y="327.019" width="6.76667" height="6.76667" fill="#F1EDE6"/>
<rect x="130.822" y="327.019" width="6.76667" height="6.76667" fill="#F1EDE6"/>
<rect x="152.626" y="327.019" width="6.76667" height="6.76667" fill="#F1EDE6"/>
<rect x="174.43" y="327.019" width="6.76667" height="6.76667" fill="#F1EDE6"/>
<rect x="196.233" y="327.019" width="6.76667" height="6.76667" fill="#F1EDE6"/>
<rect x="218.037" y="327.019" width="6.76667" height="6.76667" fill="#F1EDE6"/>
<rect x="239.841" y="327.019" width="6.76667" height="6.76667" fill="#F1EDE6"/>
<rect x="261.645" y="327.019" width="6.76667" height="6.76667" fill="#F1EDE6"/>
<rect y="348.822" width="6.76667" height="6.76667" fill="#F1EDE6"/>
<rect x="21.8037" y="348.822" width="6.76667" height="6.76667" fill="#F1EDE6"/>
<rect x="43.6074" y="348.822" width="6.76667" height="6.76667" fill="#F1EDE6"/>
<rect x="65.4111" y="348.822" width="6.76667" height="6.76667" fill="#F1EDE6"/>
<rect x="87.2148" y="348.822" width="6.76667" height="6.76667" fill="#F1EDE6"/>
<rect x="109.019" y="348.822" width="6.76667" height="6.76667" fill="#F1EDE6"/>
<rect x="130.822" y="348.822" width="6.76667" height="6.76667" fill="#F1EDE6"/>
<rect x="152.626" y="348.822" width="6.76667" height="6.76667" fill="#F1EDE6"/>
<rect x="174.43" y="348.822" width="6.76667" height="6.76667" fill="#F1EDE6"/>
<rect x="196.233" y="348.822" width="6.76667" height="6.76667" fill="#F1EDE6"/>
<rect x="218.037" y="348.822" width="6.76667" height="6.76667" fill="#F1EDE6"/>
<rect x="239.841" y="348.822" width="6.76667" height="6.76667" fill="#F1EDE6"/>
<rect x="261.645" y="348.822" width="6.76667" height="6.76667" fill="#F1EDE6"/>
<rect y="370.626" width="6.76667" height="6.76667" fill="#F1EDE6"/>
<rect x="21.8037" y="370.626" width="6.76667" height="6.76667" fill="#F1EDE6"/>
<rect x="43.6074" y="370.626" width="6.76667" height="6.76667" fill="#F1EDE6"/>
<rect x="65.4111" y="370.626" width="6.76667" height="6.76667" fill="#F1EDE6"/>
<rect x="87.2148" y="370.626" width="6.76667" height="6.76667" fill="#F1EDE6"/>
<rect x="109.019" y="370.626" width="6.76667" height="6.76667" fill="#F1EDE6"/>
<rect x="130.822" y="370.626" width="6.76667" height="6.76667" fill="#F1EDE6"/>
<rect x="152.626" y="370.626" width="6.76667" height="6.76667" fill="#F1EDE6"/>
<rect x="174.43" y="370.626" width="6.76667" height="6.76667" fill="#F1EDE6"/>
<rect x="196.233" y="370.626" width="6.76667" height="6.76667" fill="#F1EDE6"/>
<rect x="218.037" y="370.626" width="6.76667" height="6.76667" fill="#F1EDE6"/>
<rect x="239.841" y="370.626" width="6.76667" height="6.76667" fill="#F1EDE6"/>
<rect x="261.645" y="370.626" width="6.76667" height="6.76667" fill="#F1EDE6"/>
<rect y="392.43" width="6.76667" height="6.76667" fill="#F1EDE6"/>
<rect x="21.8037" y="392.43" width="6.76667" height="6.76667" fill="#F1EDE6"/>
<rect x="43.6074" y="392.43" width="6.76667" height="6.76667" fill="#F1EDE6"/>
<rect x="65.4111" y="392.43" width="6.76667" height="6.76667" fill="#F1EDE6"/>
<rect x="87.2148" y="392.43" width="6.76667" height="6.76667" fill="#F1EDE6"/>
<rect x="109.019" y="392.43" width="6.76667" height="6.76667" fill="#F1EDE6"/>
<rect x="130.822" y="392.43" width="6.76667" height="6.76667" fill="#F1EDE6"/>
<rect x="152.626" y="392.43" width="6.76667" height="6.76667" fill="#F1EDE6"/>
<rect x="174.43" y="392.43" width="6.76667" height="6.76667" fill="#F1EDE6"/>
<rect x="196.233" y="392.43" width="6.76667" height="6.76667" fill="#F1EDE6"/>
<rect x="218.037" y="392.43" width="6.76667" height="6.76667" fill="#F1EDE6"/>
<rect x="239.841" y="392.43" width="6.76667" height="6.76667" fill="#F1EDE6"/>
<rect x="261.645" y="392.43" width="6.76667" height="6.76667" fill="#F1EDE6"/>
<rect y="414.233" width="6.76667" height="6.76667" fill="#F1EDE6"/>
<rect x="21.8037" y="414.233" width="6.76667" height="6.76667" fill="#F1EDE6"/>
<rect x="43.6074" y="414.233" width="6.76667" height="6.76667" fill="#F1EDE6"/>
<rect x="65.4111" y="414.233" width="6.76667" height="6.76667" fill="#F1EDE6"/>
<rect x="87.2148" y="414.233" width="6.76667" height="6.76667" fill="#F1EDE6"/>
<rect x="109.019" y="414.233" width="6.76667" height="6.76667" fill="#F1EDE6"/>
<rect x="130.822" y="414.233" width="6.76667" height="6.76667" fill="#F1EDE6"/>
<rect x="152.626" y="414.233" width="6.76667" height="6.76667" fill="#F1EDE6"/>
<rect x="174.43" y="414.233" width="6.76667" height="6.76667" fill="#F1EDE6"/>
<rect x="196.233" y="414.233" width="6.76667" height="6.76667" fill="#F1EDE6"/>
<rect x="218.037" y="414.233" width="6.76667" height="6.76667" fill="#F1EDE6"/>
<rect x="239.841" y="414.233" width="6.76667" height="6.76667" fill="#F1EDE6"/>
<rect x="261.645" y="414.233" width="6.76667" height="6.76667" fill="#F1EDE6"/>
</svg>
